<?xml version="1.0" encoding="UTF-8" standalone="no"?>
<!-- Created with Inkscape (http://www.inkscape.org/) -->

<svg
   xmlns:dc="http://purl.org/dc/elements/1.1/"
   xmlns:cc="http://creativecommons.org/ns#"
   xmlns:rdf="http://www.w3.org/1999/02/22-rdf-syntax-ns#"
   xmlns:svg="http://www.w3.org/2000/svg"
   xmlns="http://www.w3.org/2000/svg"
   xmlns:sodipodi="http://sodipodi.sourceforge.net/DTD/sodipodi-0.dtd"
   xmlns:inkscape="http://www.inkscape.org/namespaces/inkscape"
   width="100"
   height="100"
   id="svg2"
   version="1.1"
   inkscape:version="0.48.4 r9939"
   sodipodi:docname="dessin.svg">
  <defs
     id="defs4" />
  <sodipodi:namedview
     id="base"
     pagecolor="#ffffff"
     bordercolor="#666666"
     borderopacity="1.0"
     inkscape:pageopacity="0.0"
     inkscape:pageshadow="2"
     inkscape:zoom="1.4"
     inkscape:cx="29.311069"
     inkscape:cy="92.308082"
     inkscape:document-units="px"
     inkscape:current-layer="layer1"
     showgrid="false"
     inkscape:window-width="1301"
     inkscape:window-height="735"
     inkscape:window-x="65"
     inkscape:window-y="33"
     inkscape:window-maximized="1" />
  <metadata
     id="metadata7">
    <rdf:RDF>
      <cc:Work
         rdf:about="">
        <dc:format>image/svg+xml</dc:format>
        <dc:type
           rdf:resource="http://purl.org/dc/dcmitype/StillImage" />
        <dc:title></dc:title>
      </cc:Work>
    </rdf:RDF>
  </metadata>
  <g
     inkscape:label="Calque 1"
     inkscape:groupmode="layer"
     id="layer1"
     transform="translate(0,-952.36218)">
    <path
       inkscape:connector-curvature="0"
       id="path2998"
       d="m 46.623953,1050.2815 c -1.011331,-0.063 -2.270502,-0.1931 -2.798154,-0.29 -0.527651,-0.097 -1.398615,-0.2112 -1.935472,-0.254 -0.536863,-0.043 -1.524883,-0.2249 -2.195607,-0.4047 -0.670726,-0.1797 -1.367238,-0.3267 -1.547809,-0.3267 -0.32651,0 -2.155678,-0.5504 -3.834824,-1.1539 -0.483683,-0.1739 -1.031531,-0.3447 -1.217449,-0.3798 -0.185918,-0.035 -1.014377,-0.3776 -1.84102,-0.7612 -0.826648,-0.3838 -1.681865,-0.7537 -1.900494,-0.8222 -0.750129,-0.2348 -4.555711,-2.4468 -6.644168,-3.8618 -5.786998,-3.9208 -10.056743,-8.1792 -13.6842669,-13.6476 -1.1031705,-1.663 -3.6513141,-6.5964 -4.1293142,-7.9947 -0.5444549,-1.5926 -0.8225122,-2.3436 -0.9547938,-2.5786 -0.080545,-0.143 -0.1943035,-0.5388 -0.2527976,-0.8793 -0.058492,-0.3407 -0.2399491,-1.087 -0.403235,-1.6586 -1.3409952,-4.6946 -1.9041221,-11.6054 -1.4337897,-17.59578 0.2466576,-3.14156 0.5646885,-5.02338 1.3228632,-7.82753 0.1783298,-0.65956 0.348908,-1.39977 0.3790625,-1.64489 0.030154,-0.24512 0.1203437,-0.56891 0.2004173,-0.71953 0.08007,-0.1506 0.4063709,-0.99335 0.7251046,-1.87278 0.6691022,-1.84612 2.1986986,-5.05863 3.2355978,-6.79551 1.44486,-2.42025 1.7113199,-2.81924 3.2820658,-4.9146 2.012317,-2.68442 7.211756,-7.93766 9.61052,-9.70996 1.747307,-1.29096 3.843548,-2.71139 4.744292,-3.21478 0.303769,-0.16976 0.791665,-0.46525 1.084214,-0.65662 0.472225,-0.30893 2.004683,-1.07416 4.439461,-2.21685 1.645039,-0.77205 6.425642,-2.32923 8.074666,-2.63016 0.39574,-0.0723 1.224576,-0.24352 1.84187,-0.38068 0.617288,-0.13717 1.549098,-0.2864 2.070684,-0.33166 0.521589,-0.0453 1.527533,-0.16551 2.235436,-0.26726 1.68059,-0.24154 8.616613,-0.24611 10.161226,-0.007 0.659573,0.10229 1.665043,0.22411 2.234378,0.27085 0.569336,0.0467 1.5407,0.19677 2.158572,0.33343 0.617883,0.13667 1.446122,0.31514 1.840556,0.39659 1.22718,0.25345 3.071989,0.77698 4.23958,1.20314 0.6156,0.22469 1.515003,0.55206 1.998685,0.7275 1.359137,0.49296 6.051545,2.75071 6.235876,3.00039 0.04399,0.0596 0.54764,0.37192 1.119257,0.69412 1.102496,0.62145 2.190348,1.37868 4.740879,3.29996 2.069402,1.55889 6.876861,6.38081 8.382037,8.40726 0.653202,0.87942 1.266655,1.6709 1.363234,1.75883 0.250358,0.22799 1.239494,1.72368 2.590687,3.91741 0.689095,1.11881 2.93839,5.79404 3.177201,6.60394 0.134783,0.45714 0.305421,0.90535 0.379179,0.99603 0.0738,0.0907 0.169355,0.3425 0.212434,0.55963 0.04312,0.21711 0.22403,0.82648 0.402116,1.35414 0.548709,1.62576 1.116345,4.04471 1.557141,6.63561 0.396794,2.33219 0.421723,2.78956 0.422821,7.75489 9.71e-4,5.1977 -0.0058,5.3194 -0.500249,8.1547 -0.275772,1.5829 -0.613357,3.2378 -0.750179,3.6774 -0.136824,0.4397 -0.27992,1.0514 -0.318017,1.3592 -0.06284,0.5079 -0.302419,1.2225 -1.207243,3.6007 -0.167946,0.4413 -0.305342,0.891 -0.305342,0.9991 0,0.2874 -3.007837,6.2084 -3.413021,6.7186 -0.189478,0.2385 -0.482594,0.6856 -0.651377,0.9934 -0.458597,0.8364 -2.923279,4.1229 -3.77704,5.0367 -0.410847,0.4397 -1.314949,1.4157 -2.009114,2.1688 -0.694155,0.7532 -1.83773,1.8764 -2.541266,2.4962 -0.703536,0.6198 -1.423057,1.2884 -1.598938,1.4859 -0.175892,0.1973 -0.895412,0.7603 -1.598948,1.2509 -0.703536,0.4908 -1.518044,1.097 -1.810024,1.3471 -0.291979,0.2503 -0.924875,0.6866 -1.406431,0.9696 -0.481555,0.2831 -1.249991,0.7484 -1.707646,1.0338 -3.008934,1.8773 -9.103073,4.3847 -12.504382,5.1449 -0.439709,0.098 -1.380705,0.3194 -2.091098,0.4917 -0.710392,0.172 -1.789678,0.3526 -2.398422,0.4012 -0.608724,0.049 -1.515256,0.1604 -2.014505,0.2483 -1.003032,0.1769 -5.395934,0.4736 -6.527366,0.441 -0.39574,-0.012 -1.546981,-0.072 -2.558311,-0.1346 z m 8.394455,-13.4504 c 3.295184,-0.4901 7.631518,-1.7082 8.795642,-2.4711 0.219049,-0.1435 0.398281,-0.2209 0.398281,-0.1719 0,0.05 0.557633,-0.1969 1.239182,-0.5465 3.780836,-1.9394 7.284959,-4.6912 10.263341,-8.0601 1.51479,-1.7134 3.359453,-4.2281 3.929177,-5.3564 0.155411,-0.3078 0.329729,-0.5957 0.387375,-0.6397 0.05769,-0.044 0.376906,-0.6555 0.709479,-1.3591 0.332583,-0.7034 0.700321,-1.459 0.817197,-1.6789 0.253719,-0.4771 0.834814,-2.0359 1.132573,-3.038 0.477786,-1.6078 0.721744,-2.4989 0.787985,-2.878 0.03836,-0.2199 0.249007,-1.4107 0.468017,-2.6465 0.342586,-1.9331 0.3983,-2.7302 0.399028,-5.7092 9.72e-4,-2.97618 -0.05516,-3.78324 -0.39797,-5.74792 -0.219368,-1.25707 -0.430084,-2.49202 -0.46826,-2.74432 -0.08866,-0.58611 -0.632128,-2.41954 -1.143642,-3.85842 -0.480575,-1.35185 -2.136509,-5.01932 -2.316565,-5.13059 -0.0708,-0.0438 -0.249231,-0.33353 -0.396523,-0.64393 -0.147302,-0.31041 -0.742829,-1.23576 -1.323409,-2.05636 -2.601252,-3.67663 -6.44463,-7.39501 -9.853407,-9.53293 -0.617591,-0.38733 -1.265161,-0.79367 -1.439051,-0.90295 -0.173882,-0.10932 -0.927761,-0.49129 -1.67527,-0.84892 -0.747499,-0.35762 -1.491036,-0.72228 -1.652282,-0.81035 -1.250769,-0.6831 -5.828855,-1.90124 -8.660898,-2.3045 -2.380863,-0.33901 -7.522048,-0.39284 -9.113981,-0.0955 -0.527652,0.0986 -1.509113,0.24872 -2.181026,0.33367 -2.08126,0.26308 -5.750093,1.40356 -8.158307,2.53605 -0.733124,0.34477 -1.440886,0.67158 -1.572798,0.72629 -0.534974,0.22179 -3.342143,2.04584 -4.379055,2.84544 -3.453334,2.66297 -6.366853,5.79979 -8.739037,9.40879 -0.847525,1.28941 -2.709763,4.97699 -2.712434,5.37113 -4.82e-4,0.0799 -0.0985,0.33208 -0.217661,0.56046 -0.247101,0.47354 -1.051017,3.197 -1.434959,4.86128 -0.535446,2.321 -0.664864,3.84606 -0.664864,7.83475 0,3.9717 0.157365,5.8196 0.667203,7.8349 0.133494,0.5277 0.266301,1.1752 0.295125,1.4391 0.204021,1.8675 3.057359,8.489 4.306293,9.9934 0.109521,0.1319 0.240479,0.3477 0.291017,0.4796 0.174602,0.4557 2.383405,3.1225 3.68617,4.4505 1.958227,1.996 4.303831,3.9737 6.183998,5.2139 0.923392,0.6089 1.984691,1.3144 2.358444,1.5676 0.373754,0.2531 0.679551,0.4231 0.679551,0.3777 0,-0.046 0.701534,0.2731 1.558971,0.7081 0.857431,0.435 1.618649,0.7915 1.691592,0.7923 0.07294,0 0.576608,0.1721 1.11926,0.381 4.718037,1.8155 10.631857,2.3645 16.336498,1.5161 z m -11.43245,-22.3623 0,-6.5556 6.47572,0 6.475725,0 0,6.5556 0,6.5557 -6.475725,0 -6.47572,0 0,-6.5557 z m 0,-23.38452 0,-6.59564 6.47572,0 6.475725,0 0,6.59564 0,6.59563 -6.475725,0 -6.47572,0 0,-6.59563 z"
       style="fill:#f4003b;fill-opacity:1" />
  </g>
</svg>
